# xmcd
#
# Track frame offsets:
#	150
#	13829
#	31140
#	48850
#	61640
#	77612
#	90305
#	103151
#	113654
#	129568
#	142791
#	156625
#	171481
#	187949
#	204489
#	219754
#	236997
#	253416
#	269202
#	283836
#
# Disc length: 4072 seconds
#
# Revision: 1
# Processed by: cddbd v1.5.2PL0 Copyright (c) Steve Scherf et al.
# Submitted via: audiograbber 1.83.01
#
DISCID=1f0fe614
DTITLE=Jonny Hill - 40 Jahre ruf Teddybär 1-4 - 40 unvergessene Lieder [2CD] (2
DTITLE=019) [CD 1)
DYEAR=2019
DGENRE=Deutsch Country
TTITLE0=Und würde ich nochmal gebor'n
TTITLE1=Sie waren sich zu spät begegnet (Nashville) (Neuaufnahme)
TTITLE2=Die dunkelsten Augen (Nashville) (Neuaufnahme)
TTITLE3=Ich bin für die Liebe (Neuaufnahme)
TTITLE4=Was zum Teufel ist schon Liebe (Neuaufnahme)
TTITLE5=Ich halt dich fest
TTITLE6=Bitte treten Sie zurück
TTITLE7=Rauch in den Haaren
TTITLE8=Er sagte ich komm wieder
TTITLE9=Dabei wär es so leicht... (Countryversion)
TTITLE10=Es ist dein Lächeln (Nashville)
TTITLE11=Lass mich sein wie ich bin
TTITLE12=Ich bring dich heim
TTITLE13=Der stille Held
TTITLE14=Komm ja nicht zu mir weinen
TTITLE15=Irgendwann
TTITLE16=Professor Einstein (Neuaufnahme - kurze Version)
TTITLE17=War's die Kugel, die rollt
TTITLE18=Geblendet von der Nacht (Neuaufnahme)
TTITLE19=Ruf Teddybär 1-4
EXTD=MARO\n
EXTT0=
EXTT1=
EXTT2=
EXTT3=
EXTT4=
EXTT5=
EXTT6=
EXTT7=
EXTT8=
EXTT9=
EXTT10=
EXTT11=
EXTT12=
EXTT13=
EXTT14=
EXTT15=
EXTT16=
EXTT17=
EXTT18=
EXTT19=
PLAYORDER=
